HIERARCHY
ROOT Hips
{
  OFFSET 0 0 0
  CHANNELS 6 Xposition Yposition Zposition Zrotation Yrotation Xrotation
  JOINT LeftThigh
  {
    OFFSET 8.409438 0 -5.917753
    CHANNELS 3 Zrotation Yrotation Xrotation
    JOINT LeftLeg
    {
      OFFSET 0 0 -42.358652
      CHANNELS 3 Zrotation Yrotation Xrotation
      JOINT LeftFoot
      {
        OFFSET 0 0 -39.357303
        CHANNELS 3 Zrotation Yrotation Xrotation
      }
    }
  }
  JOINT RightThigh
  {
    OFFSET -8.409438 0 -5.917753
    CHANNELS 3 Zrotation Yrotation Xrotation
    JOINT RightLeg
    {
      OFFSET 0 0 -42.358652
      CHANNELS 3 Zrotation Yrotation Xrotation
      JOINT RightFoot
      {
        OFFSET 0 0 -39.357303
        CHANNELS 3 Zrotation Yrotation Xrotation
      }
    }
  }
  JOINT SpineLow
  {
    OFFSET 0 0 4.719101
    CHANNELS 3 Zrotation Yrotation Xrotation
    JOINT SpineMid
    {
      OFFSET 0 0 12.899191
      CHANNELS 3 Zrotation Yrotation Xrotation
      JOINT Chest
      {
        OFFSET 0 0 12.899191
        CHANNELS 3 Zrotation Yrotation Xrotation
        JOINT LeftShoulder
        {
          OFFSET 7.550562 1.41573 9.438202
          CHANNELS 3 Zrotation Yrotation Xrotation
          JOINT LeftArm
          {
            OFFSET 9.155056 0 4.247191
            CHANNELS 3 Zrotation Yrotation Xrotation
            JOINT LeftForearm
            {
              OFFSET 0 0 25.771955
              CHANNELS 3 Zrotation Yrotation Xrotation
              JOINT LeftHand
              {
                OFFSET 0 0 25.197169
                CHANNELS 3 Zrotation Yrotation Xrotation
              }
            }
          }
        }
        JOINT RightShoulder
        {
          OFFSET -7.550562 1.41573 9.438202
          CHANNELS 3 Zrotation Yrotation Xrotation
          JOINT RightArm
          {
            OFFSET -9.155056 0 4.247191
            CHANNELS 3 Zrotation Yrotation Xrotation
            JOINT RightForearm
            {
              OFFSET 0 0 -25.771955
              CHANNELS 3 Zrotation Yrotation Xrotation
              JOINT RightHand
              {
                OFFSET 0 0 -25.197169
                CHANNELS 3 Zrotation Yrotation Xrotation
              }
            }
          }
        }
        JOINT Neck
        {
          OFFSET 0 0 15.101124
          CHANNELS 3 Zrotation Yrotation Xrotation
          JOINT Head
          {
            OFFSET 0 0 11.325843
            CHANNELS 3 Zrotation Yrotation Xrotation
            End Site
            {
              OFFSET 0 0 14.157303
            }
          }
        }
      }
    }
  }
}
MOTION
Frames: 17
Frame Time: 0.0
0.0  89.887642  0.0  -8.188081  57.633051  -102.575994  -34.342335  -10.191709  -6.237912  -14.160169  4.416918  27.413456  4.484131  1.222209  3.652942  -41.825153  13.554149  12.34886  -13.625595  8.279392  8.823447  1.97293  0.426118  0.061953  2.746586  -1.776048  0.856673  7.456235  -4.944142  2.139992  7.456235  -4.944142  2.139992  -2.37833  18.128542  12.336983  153.985218  8.675182  171.128279  -28.078668  52.667136  84.706188  54.774642  -11.437181  27.751063  -1.331208  9.795155  0.653028  -106.615171  61.103452  -162.510375  -31.313919  14.287212  -112.643546  75.208223  11.217267  46.653085  -38.696399  3.529785  4.733287  -29.04237  2.358467  3.791242  
0.0  89.887642  0.0  -8.434375  57.23928  -102.686407  -33.951591  -10.579563  -6.112709  -13.959891  4.429017  27.429078  4.405327  1.210384  3.586391  -41.526002  13.384309  12.338198  -13.28652  8.312299  9.016746  1.605159  0.308408  0.037636  2.769789  -1.771821  0.829516  7.521901  -4.930236  2.064447  7.521901  -4.930237  2.064448  -2.51004  18.021606  12.447432  153.937927  8.794633  171.052734  -27.980946  52.773656  84.782616  55.040576  -11.278337  27.414712  -1.549542  9.725544  0.742228  -106.816063  61.196215  -162.594406  -31.378903  14.316441  -112.687505  75.153419  11.084211  46.630616  -38.644917  3.522364  4.72676  -29.003709  2.353662  3.785506  
0.0  89.887642  0.0  -8.470963  56.981745  -102.620933  -33.769747  -10.781744  -6.093288  -13.829133  4.444274  27.354455  4.421175  1.214217  3.587636  -41.474469  13.306679  12.186668  -13.30517  8.283957  9.115719  1.634343  0.2964  0.027818  2.760272  -1.754134  0.821141  7.496829  -4.880747  2.044231  7.496829  -4.880747  2.044231  -2.619978  17.944103  12.463965  153.938086  8.905554  170.988738  -27.832726  52.865506  84.857534  55.320058  -11.200308  27.052472  -1.71329  9.691646  0.700357  -106.893488  61.188664  -162.617595  -31.448851  14.354106  -112.649565  75.121947  11.082841  46.676457  -38.573099  3.494251  4.607037  -28.948999  2.340595  3.693051  
0.0  89.887642  0.0  -8.471383  56.645541  -102.531045  -33.258694  -11.050216  -5.977854  -13.808585  4.481654  27.211828  4.310803  1.194626  3.511907  -41.172987  13.292532  12.164687  -13.328321  8.207134  9.155056  1.528328  0.231732  0.022143  2.734421  -1.733265  0.815801  7.426873  -4.822451  2.03386  7.426873  -4.822451  2.03386  -2.499259  17.780537  12.430918  153.949802  9.010885  170.891746  -27.578441  52.959184  85.005043  55.625569  -11.095908  26.704441  -1.576786  9.559345  0.707956  -107.125608  61.169261  -162.671555  -31.5461  14.369178  -112.71251  75.178054  11.037271  46.658213  -38.403495  3.47236  4.49697  -28.821061  2.332248  3.607622  
0.0  89.887642  0.0  -8.411637  56.308418  -102.33637  -32.853664  -11.246777  -5.980456  -13.797155  4.475807  27.063167  4.305303  1.190005  3.512141  -41.03119  13.236314  12.020829  -13.306859  8.094246  9.160396  1.590205  0.21875  0.021376  2.707015  -1.718423  0.805162  7.352924  -4.779982  2.008419  7.352924  -4.779982  2.008419  -2.465905  17.71424  12.379644  153.938443  9.091474  170.798171  -27.37867  53.017214  85.138759  55.888229  -11.049863  26.586284  -1.600627  9.569138  0.623222  -107.059975  61.176828  -162.572332  -31.588039  14.403628  -112.675374  75.192692  11.066104  46.636749  -38.218281  3.464878  4.326327  -28.681064  2.338614  3.47738  
0.0  89.887642  0.0  -8.344271  56.047283  -102.093634  -32.49875  -11.4113  -6.01667  -13.936142  4.505833  26.840795  4.289061  1.173822  3.481857  -40.929562  13.230002  11.888645  -13.126748  7.930231  9.153966  1.491973  0.160155  0.006902  2.673553  -1.695627  0.790415  7.262843  -4.715205  1.973008  7.262843  -4.715206  1.973008  -2.425426  17.578754  12.304544  154.040432  9.240366  170.750575  -27.050862  53.068147  85.335117  56.171431  -10.805453  26.533667  -1.663461  9.532944  0.513628  -106.744135  61.242882  -162.323639  -31.503222  14.447123  -112.697976  75.253218  10.958952  46.499235  -38.147708  3.45341  4.141921  -28.62694  2.342014  3.337291  
0.0  89.887642  0.0  -8.301116  55.680759  -101.886271  -32.133345  -11.575461  -6.036668  -13.899576  4.454074  26.719469  4.296698  1.161131  3.48186  -40.856255  13.194981  11.726331  -12.904762  7.7655  9.13688  1.531453  0.135191  -8.5E-4  2.639957  -1.680312  0.774338  7.172328  -4.670734  1.933112  7.172328  -4.670734  1.933112  -2.368378  17.491252  12.233889  153.970906  9.308281  170.654548  -26.827226  53.040467  85.523565  56.471833  -10.690702  26.576845  -1.67586  9.507815  0.410658  -106.698207  61.279266  -162.286905  -31.520584  14.434987  -112.647429  75.213402  10.974637  46.410642  -37.93721  3.448738  3.997389  -28.468179  2.34884  3.226756  
0.0  89.887642  0.0  -8.208127  55.489932  -101.640101  -32.17867  -11.546469  -6.164089  -13.929034  4.357411  26.56559  4.456692  1.17096  3.585419  -40.881949  13.236349  11.557922  -12.594947  7.556224  9.129226  1.476678  0.077504  -0.015427  2.578048  -1.652534  0.757293  7.004604  -4.591426  1.893824  7.004603  -4.591426  1.893824  -2.268661  17.352036  12.171184  153.961392  9.452521  170.583189  -26.446885  52.967936  85.803458  56.795086  -10.52046  26.547206  -1.641438  9.423459  0.329884  -106.596139  61.325897  -162.199755  -31.524445  14.369346  -112.697614  75.208035  10.894707  46.200545  -37.88003  3.458325  3.832213  -28.424267  2.366706  3.102566  
0.0  89.887642  0.0  -8.177346  55.085029  -101.480775  -31.865193  -11.638506  -6.126169  -13.864939  4.238271  26.465407  4.455098  1.15894  3.594719  -40.793611  13.242539  11.390364  -12.332966  7.362497  9.138636  1.484258  0.057851  -0.019205  2.543161  -1.646768  0.742399  6.91026  -4.573203  1.85615  6.91026  -4.573203  1.85615  -2.201742  17.320085  12.108943  153.821938  9.580961  170.48889  -26.162619  52.793262  86.08988  57.162095  -10.396044  26.489225  -1.663224  9.434958  0.264407  -106.457641  61.388476  -162.117466  -31.539291  14.359371  -112.668282  75.153667  10.953199  46.079948  -37.678848  3.476105  3.702996  -28.272621  2.389274  3.005036  
0.0  89.887642  0.0  -8.125178  54.788795  -101.228346  -31.788262  -11.686822  -6.245588  -13.7669  4.110572  26.437528  4.476987  1.155256  3.59865  -40.837765  13.238856  11.12362  -11.947706  7.14842  9.185997  1.421485  0.038311  -0.018383  2.485566  -1.629323  0.712841  6.754983  -4.521067  1.781119  6.754983  -4.521067  1.781119  -2.098534  17.247045  12.043385  153.667318  9.779617  170.407537  -25.926592  52.593025  86.409323  57.569727  -10.124725  26.429386  -1.631895  9.40864  0.250962  -106.045107  61.479018  -161.878126  -31.487324  14.401484  -112.664746  75.15938  10.92825  45.894776  -37.632039  3.510007  3.557198  -28.236629  2.424107  2.897014  
0.0  89.887642  0.0  -8.103884  54.3013  -100.981252  -31.368409  -11.864782  -6.26947  -13.719666  4.015176  26.338892  4.475551  1.152423  3.609501  -40.686517  13.12203  10.845488  -11.824645  7.042333  9.23255  1.45073  0.03057  -0.012389  2.456951  -1.6234  0.676482  6.679267  -4.500524  1.684278  6.679267  -4.500524  1.684278  -2.027941  17.232183  11.98624  153.514296  10.011959  170.280483  -25.572174  52.360838  86.778016  58.071682  -9.86527  26.42669  -1.608436  9.406183  0.275932  -105.96837  61.567674  -161.863344  -31.516247  14.416544  -112.625144  75.127455  10.963702  45.818468  -37.43295  3.534127  3.476548  -28.086856  2.448302  2.836457  
0.0  89.887642  0.0  -8.049993  53.891359  -100.672124  -31.125184  -12.025294  -6.384403  -13.630941  3.90941  26.257608  4.527708  1.177104  3.665173  -40.558985  12.976015  10.520034  -11.941608  6.933033  9.266606  1.560661  0.05029  0.014987  2.413715  -1.605559  0.636312  6.563948  -4.446823  1.579164  6.563948  -4.446824  1.579164  -1.948894  17.177296  11.905693  153.336123  10.331674  170.170584  -25.216676  52.053192  87.200248  58.641611  -9.53693  26.399115  -1.504893  9.337747  0.335001  -105.863092  61.680331  -161.83447  -31.512215  14.491638  -112.605659  75.11961  10.946854  45.740467  -37.322801  3.544982  3.390665  -28.00372  2.462323  2.771722  
0.0  89.887642  0.0  -8.052968  53.275087  -100.412596  -30.630537  -12.300947  -6.411096  -13.520949  3.871882  26.161918  4.532065  1.179592  3.67671  -40.356054  12.755461  10.198335  -11.836081  6.91933  9.333503  1.615881  0.069793  0.045684  2.394104  -1.607682  0.593104  6.513171  -4.447948  1.462151  6.513171  -4.447948  1.462151  -1.825011  17.19041  11.852738  153.142719  10.677934  170.053266  -24.802725  51.637138  87.687282  59.357899  -9.177608  26.352643  -1.467655  9.366511  0.414081  -105.915592  61.82545  -161.960236  -31.552368  14.529514  -112.541152  75.105909  10.985878  45.783871  -37.0838  3.580438  3.334467  -27.824177  2.493662  2.729997  
0.0  89.887642  0.0  -8.03611  52.86309  -100.088688  -30.328082  -12.597573  -6.513422  -13.257781  3.825105  26.176436  4.458218  1.175363  3.62054  -40.489798  12.601855  9.771575  -11.77762  6.853915  9.403884  1.822162  0.098164  0.085836  2.31951  -1.593851  0.537006  6.312959  -4.403329  1.315134  6.312959  -4.403329  1.315134  -1.475601  17.119668  11.845886  152.840054  11.076397  169.98102  -24.425033  51.158424  88.181437  60.237597  -8.677859  26.272278  -1.135489  9.276029  0.596596  -106.188162  61.983273  -162.229042  -31.571706  14.636614  -112.455499  75.1196  11.001444  45.895892  -36.772316  3.602202  3.318249  -27.590539  2.512571  2.717047  
0.0  89.887642  0.0  -8.095345  52.205996  -99.925194  -29.886033  -12.904034  -6.480253  -13.054155  3.804362  26.107485  4.479073  1.185917  3.618074  -40.317602  12.405344  9.461057  -11.598126  6.812911  9.53336  1.902297  0.140426  0.131479  2.293598  -1.612274  0.496446  6.244571  -4.449344  1.204254  6.244571  -4.449344  1.204254  -1.293549  17.18097  11.799032  152.637062  11.524835  169.923535  -23.982561  50.637887  88.701935  61.352708  -8.023609  26.186487  -1.138027  9.35051  0.710013  -106.374884  62.225593  -162.563749  -31.596218  14.705377  -112.310879  75.106103  11.013553  45.890764  -36.465399  3.649166  3.274061  -27.360148  2.552099  2.684557  
0.0  89.887642  0.0  -8.11936  51.640295  -99.783578  -29.347047  -13.195032  -6.336294  -13.149655  3.847921  25.834917  4.534197  1.19193  3.630468  -40.3976  12.375273  9.116579  -11.437065  6.766681  9.692733  2.067518  0.175795  0.183119  2.242042  -1.641415  0.464169  6.105383  -4.525097  1.116835  6.105383  -4.525097  1.116835  -1.016159  17.296403  11.738706  152.324968  12.015358  169.923456  -23.625871  50.085466  89.181971  62.718922  -7.239243  26.121013  -0.916675  9.434766  0.911978  -106.881008  62.478382  -163.06595  -31.580569  14.76392  -112.145267  75.116139  11.056811  45.803341  -36.059517  3.720613  3.233136  -27.055577  2.610293  2.655264  
0.0  89.887642  0.0  -8.169553  50.888106  -99.693882  -28.782408  -13.462353  -6.195236  -13.037161  3.812272  25.712058  4.552327  1.199367  3.629828  -40.264051  12.305106  8.797369  -11.136786  6.675847  9.922656  2.17797  0.211096  0.231496  2.224172  -1.6676  0.452787  6.057039  -4.595287  1.084572  6.057039  -4.595287  1.084572  -0.917744  17.387837  11.49785  152.193748  12.554417  169.916151  -23.104622  49.344779  89.779172  64.263679  -6.426102  26.115798  -1.090309  9.551868  0.848853  -107.072717  62.957026  -163.542927  -31.531847  14.807367  -111.916107  75.113402  11.111604  45.561916  -35.691413  3.729988  3.154259  -26.779071  2.623727  2.593942  
